# xmcd
#
# Track frame offsets: 
#        150
#        15900
#        25125
#        33150
#        44475
#        54600
#        68625
#        84975
#        98100
#        103500
#        117900
#        125550
#        134850
#        144675
#        158550
#        171450
#        180075
#        188325
#        198450
#        208425
#        222150
#        231000
#        242175
#
# Disc length: 3551 seconds
#
# Revision: 3
# Processed by: cddbd v1.5.2PL0 Copyright (c) Steve Scherf et al.
# Submitted via: ExactAudioCopy v1.0b3
#
DISCID=400ddd17
DTITLE=タニウチヒデキ - 逆境無類カイジ オリジナル・サウンドトラック
DYEAR=2008
DGENRE=Anime, Game
TTITLE0=This world
TTITLE1=Beam of light
TTITLE2=Lot
TTITLE3=Kaiji
TTITLE4=Man racetrack
TTITLE5=Green
TTITLE6=Wish
TTITLE7=Line of light
TTITLE8=String of light
TTITLE9=Memories
TTITLE10=This world II
TTITLE11=Kaiji theme
TTITLE12=Predicament
TTITLE13=Espoir
TTITLE14=Despair
TTITLE15=Ship of hope
TTITLE16=Regret
TTITLE17=Chest
TTITLE18=Child's mind
TTITLE19=This world III
TTITLE20=Beginnig
TTITLE21=カイジwithレッどぼんチリーず - 未来は僕等の手の中
TTITLE22=白竜 - 負け犬達のレクイエム
EXTD=YEAR: 2008
EXTT0=
EXTT1=
EXTT2=
EXTT3=
EXTT4=
EXTT5=
EXTT6=
EXTT7=
EXTT8=
EXTT9=
EXTT10=
EXTT11=
EXTT12=
EXTT13=
EXTT14=
EXTT15=
EXTT16=
EXTT17=
EXTT18=
EXTT19=
EXTT20=
EXTT21=
EXTT22=
PLAYORDER=
